<mxfile host="app.diagrams.net" modified="2024-04-15T13:16:44.079Z" agent="Mozilla/5.0 (Windows NT 10.0; Win64; x64) AppleWebKit/537.36 (KHTML, like Gecko) Chrome/123.0.0.0 Safari/537.36" version="24.2.5" etag="m6yZclSCNWgR9_1hdXFK" type="github">
  <diagram name="Page-1" id="WTTowsbUPrSdqY_uYSFm">
    <mxGraphModel>
      <root>
        <mxCell id="0" />
        <mxCell id="1" parent="0" />
      </root>
    </mxGraphModel>
  </diagram>
</mxfile>
